<svg xmlns="http://www.w3.org/2000/svg" width="30" height="30" viewBox="0 0 30 30"><path fill="#377BE9" d="M14.558 3.059c.243-.493.642-.493.885 0l3.288 6.658c.243.493.888.961 1.432 1.041l7.349 1.068c.544.079.667.458.273.842l-5.316 5.184c-.394.384-.64 1.142-.547 1.684l1.254 7.318c.093.542-.229.776-.716.52l-6.574-3.455c-.487-.257-1.284-.257-1.771 0l-6.573 3.455c-.487.257-.809.022-.716-.52l1.256-7.318c.093-.542-.153-1.3-.547-1.684l-5.319-5.184c-.394-.384-.271-.763.274-.842l7.349-1.068c.544-.079 1.189-.547 1.432-1.041l3.287-6.658z"/></svg>