<svg xmlns="http://www.w3.org/2000/svg" width="30" height="30" viewBox="0 0 30 30"><path fill="#377BE9" d="M20.046 26.737h-12.062v1.723l-1.524 1.04h15.11l-1.524-1.04zM27.79 24.235l-11.888-11.887 1.166-1.166c.499-.5.747-1.062.553-1.255l-6.308-6.307c-.193-.194-.754.054-1.254.553l-4.519 4.518c-.5.5-.748 1.062-.554 1.255l6.309 6.309c.193.193.755-.055 1.254-.553l1.25-1.251 11.888 11.887c.29.29.67.436 1.051.436.38 0 .761-.146 1.052-.436.58-.581.58-1.523 0-2.103zM18.143 9.407c.193.194.507.194.7 0l1.753-1.752c.194-.194.194-.508 0-.701l-6.309-6.309c-.194-.193-.507-.193-.701 0l-1.752 1.752c-.194.194-.194.508 0 .701l6.309 6.309zM8.93 19.321l1.753-1.753c.193-.194.193-.508 0-.702l-6.309-6.308c-.194-.194-.507-.194-.701 0l-1.753 1.753c-.193.194-.193.508 0 .701l6.309 6.31c.194.193.507.193.701-.001z"/></svg>