<svg xmlns="http://www.w3.org/2000/svg" width="15" height="15" viewBox="0 0 15 15"><path fill="#fff" d="M14.559 9.392c-.764-.441-.852-.673-.916-.8s-.152-.286-.152-1.092.087-.964.151-1.091.152-.358.916-.8c.388-.224.164-.611.164-.611l-.725-1.254-.725-1.255s-.224-.388-.61-.164c-.765.441-.952.425-1.151.394-.525-.085-1.659-.791-1.839-1.078-.089-.144-.234-.311-.234-1.194 0-.447-.447-.447-.447-.447h-2.983s-.447 0-.447.447c0 .883-.144 1.049-.234 1.193-.18.287-1.313.992-1.839 1.078-.198.032-.386.048-1.151-.393-.387-.224-.611.163-.611.163l-.724 1.255-.725 1.255s-.224.388.164.611c.764.441.852.673.917.8s.15.285.15 1.091-.086.965-.151 1.092-.152.358-.917.8c-.387.224-.164.61-.164.61l.725 1.255.724 1.255s.224.388.611.164c.764-.441.952-.426 1.15-.394.526.085 1.659.79 1.839 1.077.09.145.234.311.234 1.193.002.448.449.448.449.448h2.983s.447 0 .447-.447c0-.883.145-1.049.234-1.193.18-.287 1.313-.992 1.839-1.077.199-.032.387-.048 1.151.394.387.224.61-.164.61-.164l.725-1.255.725-1.255c.001-.001.224-.388-.163-.611zm-7.101 2.37c-2.354 0-4.262-1.908-4.262-4.262s1.908-4.261 4.262-4.261c2.353 0 4.261 1.908 4.261 4.261s-1.908 4.262-4.261 4.262z"/><circle fill="#fff" cx="7.458" cy="7.5" r="1.867"/></svg>