<svg xmlns="http://www.w3.org/2000/svg" width="27" height="24" viewBox="0 0 27 24"><path d="M13.058.433c.243-.493.642-.493.885 0l3.134 6.346c.243.493.888.961 1.432 1.041l7.002 1.018c.544.079.667.458.273.842l-5.067 4.94c-.394.384-.64 1.142-.547 1.684l1.196 6.975c.093.542-.229.776-.716.521l-6.266-3.294c-.486-.256-1.283-.256-1.77 0l-6.264 3.294c-.487.256-.809.021-.716-.521l1.197-6.975c.093-.542-.153-1.3-.547-1.684l-5.068-4.94c-.394-.385-.271-.763.274-.843l7.003-1.017c.544-.079 1.189-.547 1.432-1.041l3.133-6.346z"/></svg>