<svg xmlns="http://www.w3.org/2000/svg" width="30" height="30" viewBox="0 0 30 30"><path fill="#377BE9" d="M15 1.5c-7.456 0-13.5 6.044-13.5 13.5 0 7.455 6.044 13.5 13.5 13.5 7.455 0 13.5-6.045 13.5-13.5 0-7.456-6.045-13.5-13.5-13.5zm0 24.236c-5.929 0-10.736-4.807-10.736-10.736s4.807-10.736 10.736-10.736c5.93 0 10.736 4.807 10.736 10.736s-4.806 10.736-10.736 10.736zM20.669 9.503l-5.455 4.191c.63.103 1.111.647 1.111 1.306l-.007.129 5.453-4.19c.397-.305.472-.873.167-1.27-.304-.397-.873-.471-1.269-.166zM16.017 15.849c-.243.292-.608.476-1.017.476-.128 0-.252-.02-.369-.053l2.326 7.616c.095.312.383.513.692.513l.212-.032c.383-.116.599-.521.481-.904l-2.325-7.616zM13.675 15c0-.682.515-1.243 1.176-1.316l-5.096-1.961c-.622-.24-1.321.071-1.561.693s.071 1.321.693 1.56l5.234 2.014c-.272-.242-.446-.595-.446-.99z"/><circle fill="#377BE9" cx="15" cy="15" r=".906"/></svg>