<svg xmlns="http://www.w3.org/2000/svg" width="15" height="16" viewBox="0 0 15 16"><g><path fill="#fff" d="M8.237 1.636c.045-.101.069-.211.069-.329.001-.446-.36-.807-.806-.807-.446 0-.808.361-.808.807 0 .117.025.228.07.329.25-.023.499-.032.738-.032s.487.009.737.032zM5.375 13.375c0 1.174.952 2.125 2.125 2.125s2.124-.951 2.124-2.125h-4.2490000000000006z"/><path fill="#4975BA" d="M11.212 4.26c0-1.896-1.511-2.491-2.975-2.625-.25-.022-.498-.031-.737-.031s-.488.009-.737.032c-1.465.133-2.975.729-2.975 2.624 0 1.977-.241 5.079-3.257 8.095 0 .337.369 1.02.892 1.02h12.154c.524 0 .892-.683.892-1.02-3.017-3.016-3.257-6.118-3.257-8.095z"/></g></svg>