<?xml version="1.0" encoding="utf-8"?>
<!-- Generator: Adobe Illustrator 16.0.0, SVG Export Plug-In . SVG Version: 6.00 Build 0)  -->
<!DOCTYPE svg PUBLIC "-//W3C//DTD SVG 1.1//EN" "http://www.w3.org/Graphics/SVG/1.1/DTD/svg11.dtd">
<svg version="1.1" id="Layer_1" xmlns="http://www.w3.org/2000/svg" xmlns:xlink="http://www.w3.org/1999/xlink" x="0px" y="0px"
	 width="149px" height="40px" viewBox="0 0 149 40" enable-background="new 0 0 149 40" xml:space="preserve">
<path fill="#F7941E" d="M16.748,15.772l7.529-7.529l7.529,7.529C27.648,19.931,20.906,19.931,16.748,15.772z"/>
<path fill="#8DC63F" d="M15.955,31.624l-7.529-7.529l7.529-7.53C20.113,20.724,20.113,27.466,15.955,31.624z"/>
<path fill="#39B54A" d="M32.6,16.564l7.529,7.53L32.6,31.624C28.44,27.466,28.44,20.724,32.6,16.564z"/>
<path fill="#6CB9C6" d="M16.748,32.416c4.158-4.157,10.9-4.157,15.059,0l-7.529,7.531L16.748,32.416z"/>
<path fill="#FACE41" d="M32.468,15.112l-7.529-7.53l7.529-7.529C36.626,4.211,36.626,10.953,32.468,15.112z"/>
<path fill="#8DC63F" d="M33.26,15.905c4.159-4.159,10.901-4.159,15.06-0.001l-7.53,7.53L33.26,15.905z"/>
<path fill="#F15A29" d="M16.132,0.097l7.529,7.529l-7.529,7.53C11.973,10.998,11.973,4.255,16.132,0.097z"/>
<path fill="#39B54A" d="M0.279,15.948c4.158-4.158,10.901-4.158,15.06,0l-7.529,7.53L0.279,15.948z"/>
<g>
	<g>
		<path fill="#8795A9" d="M62.922,34.18V6.016h5.564l3.993,21.563l3.993-21.563h5.561V34.18h-4.021V11.956L73.987,34.18H70.97
			l-4.023-22.224V34.18H62.922z"/>
		<path fill="#8795A9" d="M86.059,34.18V6.016h11.063v3.018h-7.039v9.053h5.027v3.018h-5.027v10.059h7.039v3.018H86.059z"/>
		<path fill="#8795A9" d="M106.82,34.462c-1.186,0-2.227-0.166-3.129-0.503c-0.9-0.334-1.639-0.797-2.215-1.39
			s-1.047-1.331-1.408-2.217c-0.359-0.885-0.615-1.83-0.762-2.836c-0.146-1.007-0.219-2.144-0.219-3.411v-8.031
			c0-1.268,0.072-2.404,0.219-3.41s0.402-1.952,0.762-2.837c0.361-0.886,0.832-1.622,1.408-2.209s1.314-1.048,2.215-1.383
			c0.902-0.335,1.943-0.503,3.129-0.503c1.309,0,2.439,0.194,3.395,0.582c0.953,0.388,1.715,0.959,2.287,1.713
			c0.57,0.754,0.998,1.629,1.287,2.624c0.289,0.996,0.459,2.159,0.512,3.489c0.01,0.199,0.016,0.509,0.016,0.929h-4.023v-0.896
			c-0.01-0.556-0.033-1.029-0.063-1.423c-0.029-0.393-0.09-0.799-0.172-1.219c-0.086-0.417-0.209-0.767-0.369-1.045
			c-0.166-0.276-0.367-0.533-0.615-0.77c-0.246-0.235-0.557-0.408-0.934-0.519s-0.818-0.165-1.32-0.165
			c-0.65,0-1.209,0.104-1.676,0.314c-0.465,0.21-0.832,0.479-1.094,0.809c-0.26,0.33-0.461,0.773-0.604,1.328
			c-0.141,0.556-0.232,1.099-0.273,1.627c-0.043,0.529-0.063,1.182-0.063,1.958v10.057c0,0.672,0.027,1.279,0.086,1.825
			c0.057,0.542,0.168,1.086,0.338,1.627c0.166,0.537,0.385,0.991,0.652,1.357c0.266,0.367,0.623,0.664,1.068,0.888
			c0.445,0.226,0.967,0.339,1.564,0.339s1.109-0.115,1.539-0.347c0.43-0.229,0.768-0.521,1.014-0.88
			c0.244-0.355,0.439-0.811,0.582-1.365c0.141-0.557,0.234-1.097,0.275-1.619c0.041-0.524,0.063-1.133,0.063-1.825V24.12h4.023
			v1.006c0,1.458-0.129,2.735-0.385,3.837c-0.258,1.1-0.67,2.072-1.242,2.914c-0.572,0.844-1.346,1.486-2.324,1.926
			C109.383,34.244,108.203,34.462,106.82,34.462z"/>
		<path fill="#8795A9" d="M124.219,34.462c-1.186,0-2.227-0.166-3.129-0.503c-0.902-0.334-1.641-0.797-2.215-1.39
			c-0.578-0.593-1.045-1.331-1.406-2.217c-0.361-0.885-0.617-1.83-0.764-2.836c-0.145-1.007-0.221-2.144-0.221-3.411v-8.031
			c0-1.268,0.076-2.404,0.221-3.41c0.146-1.006,0.402-1.952,0.764-2.837c0.361-0.886,0.828-1.622,1.406-2.209
			c0.574-0.587,1.313-1.048,2.215-1.383s1.943-0.503,3.129-0.503c1.309,0,2.441,0.194,3.395,0.582
			c0.951,0.388,1.715,0.959,2.287,1.713c0.57,0.754,1,1.629,1.287,2.624c0.287,0.996,0.459,2.159,0.512,3.489
			c0.01,0.199,0.016,0.509,0.016,0.929h-4.023v-0.896c-0.012-0.556-0.031-1.029-0.063-1.423c-0.033-0.393-0.09-0.799-0.174-1.219
			c-0.084-0.417-0.205-0.767-0.369-1.045c-0.162-0.276-0.367-0.533-0.613-0.77c-0.246-0.235-0.559-0.408-0.936-0.519
			s-0.814-0.165-1.318-0.165c-0.65,0-1.209,0.104-1.674,0.314c-0.467,0.21-0.832,0.479-1.092,0.809
			c-0.262,0.33-0.465,0.773-0.605,1.328c-0.145,0.556-0.234,1.099-0.275,1.627c-0.043,0.529-0.063,1.182-0.063,1.958v10.057
			c0,0.672,0.027,1.279,0.086,1.825c0.057,0.542,0.17,1.086,0.338,1.627c0.166,0.537,0.385,0.991,0.65,1.357
			c0.268,0.367,0.625,0.664,1.07,0.888c0.445,0.226,0.967,0.339,1.564,0.339c0.596,0,1.109-0.115,1.539-0.347
			c0.43-0.229,0.77-0.521,1.014-0.88c0.246-0.355,0.441-0.811,0.58-1.365c0.143-0.557,0.234-1.097,0.277-1.619
			c0.041-0.524,0.063-1.133,0.063-1.825V24.12h4.023v1.006c0,1.458-0.127,2.735-0.387,3.837c-0.256,1.1-0.668,2.072-1.24,2.914
			c-0.572,0.844-1.348,1.486-2.326,1.926C126.781,34.244,125.602,34.462,124.219,34.462z"/>
		<path fill="#8795A9" d="M132.627,34.18l6.035-28.164h4.021l6.037,28.164h-4.023l-1.51-7.042h-5.029l-1.51,7.042H132.627z
			 M138.662,24.12h4.021l-2.012-12.069L138.662,24.12z"/>
	</g>
</g>
</svg>
