<svg xmlns="http://www.w3.org/2000/svg" width="149" height="40" viewBox="0 0 149 40"><path fill="#F7941E" d="M16.748 15.772l7.529-7.529 7.529 7.529c-4.158 4.159-10.9 4.159-15.058 0z"/><path fill="#8DC63F" d="M15.955 31.624l-7.529-7.529 7.529-7.53c4.158 4.159 4.158 10.901 0 15.059z"/><path fill="#39B54A" d="M32.6 16.564l7.529 7.53-7.529 7.53c-4.16-4.158-4.16-10.9 0-15.06z"/><path fill="#6CB9C6" d="M16.748 32.416c4.158-4.157 10.9-4.157 15.059 0l-7.529 7.531-7.53-7.531z"/><path fill="#FACE41" d="M32.468 15.112l-7.529-7.53 7.529-7.529c4.158 4.158 4.158 10.9 0 15.059z"/><path fill="#8DC63F" d="M33.26 15.905c4.159-4.159 10.901-4.159 15.06-.001l-7.53 7.53-7.53-7.529z"/><path fill="#F15A29" d="M16.132.097l7.529 7.529-7.529 7.53c-4.159-4.158-4.159-10.901 0-15.059z"/><path fill="#39B54A" d="M.279 15.948c4.158-4.158 10.901-4.158 15.06 0l-7.529 7.53-7.531-7.53z"/><g fill="#8795A9"><path d="M62.922 34.18v-28.164h5.564l3.993 21.563 3.993-21.563h5.561v28.164h-4.021v-22.224l-4.025 22.224h-3.017l-4.023-22.224v22.224h-4.025zM86.059 34.18v-28.164h11.063v3.018h-7.039v9.053h5.027v3.018h-5.027v10.059h7.039v3.018h-11.063zM106.82 34.462c-1.186 0-2.227-.166-3.129-.503-.9-.334-1.639-.797-2.215-1.39s-1.047-1.331-1.408-2.217c-.359-.885-.615-1.83-.762-2.836-.146-1.007-.219-2.144-.219-3.411v-8.031c0-1.268.072-2.404.219-3.41s.402-1.952.762-2.837c.361-.886.832-1.622 1.408-2.209s1.314-1.048 2.215-1.383c.902-.335 1.943-.503 3.129-.503 1.309 0 2.439.194 3.395.582.953.388 1.715.959 2.287 1.713.57.754.998 1.629 1.287 2.624.289.996.459 2.159.512 3.489.01.199.016.509.016.929h-4.023v-.896c-.01-.556-.033-1.029-.063-1.423-.029-.393-.09-.799-.172-1.219-.086-.417-.209-.767-.369-1.045-.166-.276-.367-.533-.615-.77-.246-.235-.557-.408-.934-.519s-.818-.165-1.32-.165c-.65 0-1.209.104-1.676.314-.465.21-.832.479-1.094.809-.26.33-.461.773-.604 1.328-.141.556-.232 1.099-.273 1.627-.043.529-.063 1.182-.063 1.958v10.057c0 .672.027 1.279.086 1.825.057.542.168 1.086.338 1.627.166.537.385.991.652 1.357.266.367.623.664 1.068.888.445.226.967.339 1.564.339s1.109-.115 1.539-.347c.43-.229.768-.521 1.014-.88.244-.355.439-.811.582-1.365.141-.557.234-1.097.275-1.619.041-.524.063-1.133.063-1.825v-1.005h4.023v1.006c0 1.458-.129 2.735-.385 3.837-.258 1.1-.67 2.072-1.242 2.914-.572.844-1.346 1.486-2.324 1.926-.981.441-2.161.659-3.544.659zM124.219 34.462c-1.186 0-2.227-.166-3.129-.503-.902-.334-1.641-.797-2.215-1.39-.578-.593-1.045-1.331-1.406-2.217-.361-.885-.617-1.83-.764-2.836-.145-1.007-.221-2.144-.221-3.411v-8.031c0-1.268.076-2.404.221-3.41.146-1.006.402-1.952.764-2.837.361-.886.828-1.622 1.406-2.209.574-.587 1.313-1.048 2.215-1.383s1.943-.503 3.129-.503c1.309 0 2.441.194 3.395.582.951.388 1.715.959 2.287 1.713.57.754 1 1.629 1.287 2.624.287.996.459 2.159.512 3.489.01.199.016.509.016.929h-4.023v-.896c-.012-.556-.031-1.029-.063-1.423-.033-.393-.09-.799-.174-1.219-.084-.417-.205-.767-.369-1.045-.162-.276-.367-.533-.613-.77-.246-.235-.559-.408-.936-.519s-.814-.165-1.318-.165c-.65 0-1.209.104-1.674.314-.467.21-.832.479-1.092.809-.262.33-.465.773-.605 1.328-.145.556-.234 1.099-.275 1.627-.043.529-.063 1.182-.063 1.958v10.057c0 .672.027 1.279.086 1.825.057.542.17 1.086.338 1.627.166.537.385.991.65 1.357.268.367.625.664 1.07.888.445.226.967.339 1.564.339.596 0 1.109-.115 1.539-.347.43-.229.77-.521 1.014-.88.246-.355.441-.811.58-1.365.143-.557.234-1.097.277-1.619.041-.524.063-1.133.063-1.825v-1.005h4.023v1.006c0 1.458-.127 2.735-.387 3.837-.256 1.1-.668 2.072-1.24 2.914-.572.844-1.348 1.486-2.326 1.926-.981.441-2.16.659-3.543.659zM132.627 34.18l6.035-28.164h4.021l6.037 28.164h-4.023l-1.51-7.042h-5.029l-1.51 7.042h-4.021zm6.035-10.06h4.021l-2.012-12.069-2.009 12.069z"/></g></svg>