<svg xmlns="http://www.w3.org/2000/svg" width="40" height="36" viewBox="0 0 40 36"><path fill="#FCD4B5" d="M35.194 22.504c.203-.858.711-1.475 1.131-1.375l.073.052c.07-.394.141-.789.184-1.191-3.62-3.093-9.734-5.126-16.673-5.126-6.936 0-13.052 2.033-16.672 5.126.042.388.111.767.177 1.148l.011-.009c.421-.1.928.517 1.13 1.375.19.806.038 1.517-.327 1.689 2.399 6.603 8.504 11.307 15.681 11.307 7.162 0 13.258-4.686 15.669-11.268-.411-.115-.584-.878-.384-1.728zM6.049 22.387c.617 2.138 1.325 3.995 1.325 3.995-1.962.615-5.615-.136-6.278-2.262-1.131-3.621.388-4.349 2.351-4.96 1.962-.613 1.945.946 2.602 3.227zM33.951 22.387c-.617 2.138-1.324 3.995-1.324 3.995 1.962.615 5.612-.136 6.277-2.262 1.132-3.621-.387-4.349-2.35-4.96-1.962-.613-1.946.946-2.603 3.227z"/><path fill="#855C52" d="M36.582 19.989c.07-.653.115-1.315.115-1.989 0-9.666-7.517-17.5-16.788-17.5s-16.787 7.834-16.787 17.5c0 .674.044 1.336.115 1.989 3.62-3.093 9.736-5.126 16.672-5.126 6.939 0 13.053 2.033 16.673 5.126z"/><circle fill="#45413E" cx="27.053" cy="23.78" r="1.743"/><circle fill="#fff" cx="26.679" cy="23.373" r=".656"/><circle fill="#45413E" cx="12.69" cy="23.78" r="1.742"/><circle fill="#fff" cx="12.316" cy="23.373" r=".656"/><ellipse fill="#CEAF97" cx="19.909" cy="26.789" rx="1.76" ry="1.268"/><path fill="#5A504A" d="M22.545 30.278c-.439.282-1.454.481-2.636.481-1.182 0-2.197-.199-2.636-.481-.149.098-.232.202-.232.313 0 .437 1.284.792 2.868.792 1.583 0 2.868-.355 2.868-.792 0-.111-.085-.215-.232-.313z"/><path fill="#AF8A71" d="M36.398 21.181c-.186 1.054-.461 2.071-.82 3.052l.015.01c.421.1.928-.518 1.13-1.375.188-.804.037-1.509-.325-1.687zM3.028 22.867c.202.857.709 1.475 1.13 1.375l.07-.049c-.357-.98-.629-2.002-.813-3.056-.414.113-.588.877-.387 1.73z"/><path fill="#855C52" d="M34.872 17.85l-1.397 3.789-1.597-4.722-.996 1.665-3.06-2.861-.598 1.662-3.991-1.662-1.794 1.796-1.929-1.796-4.255 2.328-1.995-2.328-2.194 2.394-1.197-1.33-3.525 5.252-1.596-4.986 1.53-3.325h27.264z"/></svg>