<?xml version="1.0" encoding="utf-8"?>
<!-- Generator: Adobe Illustrator 16.0.0, SVG Export Plug-In . SVG Version: 6.00 Build 0)  -->
<!DOCTYPE svg PUBLIC "-//W3C//DTD SVG 1.1//EN" "http://www.w3.org/Graphics/SVG/1.1/DTD/svg11.dtd">
<svg version="1.1" id="Layer_1" xmlns="http://www.w3.org/2000/svg" xmlns:xlink="http://www.w3.org/1999/xlink" x="0px" y="0px"
	 width="36px" height="36px" viewBox="0 0 36 36" enable-background="new 0 0 36 36" xml:space="preserve">
<path fill="#377BE9" d="M34.471,22.413c-1.783-1.03-1.987-1.57-2.138-1.866C32.183,20.25,31.98,19.881,31.98,18
	s0.202-2.25,0.353-2.547c0.15-0.296,0.354-0.836,2.138-1.866c0.904-0.522,0.382-1.426,0.382-1.426l-1.69-2.928l-1.689-2.927
	c0,0-0.522-0.904-1.427-0.382c-1.783,1.029-2.222,0.993-2.685,0.918c-1.228-0.199-3.871-1.844-4.29-2.514
	c-0.211-0.336-0.547-0.725-0.547-2.784C22.524,0.5,21.48,0.5,21.48,0.5H18.1h-3.58c0,0-1.044,0-1.044,1.044
	c0,2.059-0.337,2.448-0.547,2.784c-0.419,0.67-3.063,2.315-4.291,2.514C8.175,6.917,7.737,6.953,5.954,5.924
	C5.05,5.402,4.528,6.306,4.528,6.306l-1.69,2.927l-1.69,2.928c0,0-0.522,0.904,0.382,1.426c1.783,1.03,1.987,1.57,2.138,1.866
	C3.817,15.75,4.02,16.119,4.02,18s-0.202,2.25-0.353,2.547c-0.151,0.296-0.355,0.836-2.138,1.866
	c-0.904,0.521-0.382,1.426-0.382,1.426l1.69,2.928l1.69,2.928c0,0,0.522,0.904,1.426,0.382c1.783-1.029,2.222-0.993,2.685-0.918
	c1.227,0.198,3.871,1.844,4.291,2.514c0.21,0.336,0.547,0.726,0.547,2.784c0,1.044,1.044,1.044,1.044,1.044h3.58h3.381
	c0,0,1.044,0,1.044-1.044c0-2.059,0.336-2.448,0.547-2.784c0.419-0.67,3.063-2.315,4.29-2.514c0.463-0.075,0.901-0.111,2.685,0.918
	c0.904,0.522,1.427-0.382,1.427-0.382l1.689-2.928l1.69-2.928C34.853,23.839,35.375,22.935,34.471,22.413z M17.9,27.943
	c-5.491,0-9.943-4.452-9.943-9.943c0-5.492,4.452-9.943,9.943-9.943s9.943,4.452,9.943,9.943
	C27.844,23.491,23.392,27.943,17.9,27.943z"/>
<circle fill="#377BE9" cx="17.9" cy="18" r="4.356"/>
<g>
</g>
<g>
</g>
<g>
</g>
<g>
</g>
<g>
</g>
<g>
</g>
</svg>
