<svg xmlns="http://www.w3.org/2000/svg" width="36" height="36" viewBox="0 0 36 36"><path fill="#377BE9" d="M34.471 22.413c-1.783-1.03-1.987-1.57-2.138-1.866-.15-.297-.353-.666-.353-2.547s.202-2.25.353-2.547c.15-.296.354-.836 2.138-1.866.904-.522.382-1.426.382-1.426l-1.69-2.928-1.689-2.927s-.522-.904-1.427-.382c-1.783 1.029-2.222.993-2.685.918-1.228-.199-3.871-1.844-4.29-2.514-.211-.336-.547-.725-.547-2.784-.001-1.044-1.045-1.044-1.045-1.044h-6.96s-1.044 0-1.044 1.044c0 2.059-.337 2.448-.547 2.784-.419.67-3.063 2.315-4.291 2.514-.463.075-.901.111-2.684-.918-.904-.522-1.426.382-1.426.382l-1.69 2.927-1.69 2.928s-.522.904.382 1.426c1.783 1.03 1.987 1.57 2.138 1.866.149.297.352.666.352 2.547s-.202 2.25-.353 2.547c-.151.296-.355.836-2.138 1.866-.904.521-.382 1.426-.382 1.426l1.69 2.928 1.69 2.928s.522.904 1.426.382c1.783-1.029 2.222-.993 2.685-.918 1.227.198 3.871 1.844 4.291 2.514.21.336.547.726.547 2.784 0 1.044 1.044 1.044 1.044 1.044h6.961s1.044 0 1.044-1.044c0-2.059.336-2.448.547-2.784.419-.67 3.063-2.315 4.29-2.514.463-.075.901-.111 2.685.918.904.522 1.427-.382 1.427-.382l1.689-2.928 1.69-2.928s.522-.904-.382-1.426zm-16.571 5.53c-5.491 0-9.943-4.452-9.943-9.943 0-5.492 4.452-9.943 9.943-9.943s9.943 4.452 9.943 9.943c.001 5.491-4.451 9.943-9.943 9.943z"/><circle fill="#377BE9" cx="17.9" cy="18" r="4.356"/></svg>