<?xml version="1.0" encoding="utf-8"?>
<!-- Generator: Adobe Illustrator 16.0.0, SVG Export Plug-In . SVG Version: 6.00 Build 0)  -->
<!DOCTYPE svg PUBLIC "-//W3C//DTD SVG 1.1//EN" "http://www.w3.org/Graphics/SVG/1.1/DTD/svg11.dtd">
<svg version="1.1" id="Layer_1" xmlns="http://www.w3.org/2000/svg" xmlns:xlink="http://www.w3.org/1999/xlink" x="0px" y="0px"
	 width="40px" height="36px" viewBox="0 0 40 36" enable-background="new 0 0 40 36" xml:space="preserve">
<g>
	<path fill="#FCD4B5" d="M35.194,22.504c0.203-0.858,0.711-1.475,1.131-1.375c0.028,0.009,0.047,0.038,0.073,0.052
		c0.07-0.394,0.141-0.789,0.184-1.191c-3.62-3.093-9.734-5.126-16.673-5.126c-6.936,0-13.052,2.033-16.672,5.126
		c0.042,0.388,0.111,0.767,0.177,1.148c0.004-0.003,0.006-0.008,0.011-0.009c0.421-0.1,0.928,0.517,1.13,1.375
		c0.19,0.806,0.038,1.517-0.327,1.689C6.627,30.796,12.732,35.5,19.909,35.5c7.162,0,13.258-4.686,15.669-11.268
		C35.167,24.117,34.994,23.354,35.194,22.504z"/>
	<path fill="#FCD4B5" d="M6.049,22.387c0.617,2.138,1.325,3.995,1.325,3.995c-1.962,0.615-5.615-0.136-6.278-2.262
		c-1.131-3.621,0.388-4.349,2.351-4.96C5.409,18.547,5.392,20.106,6.049,22.387z"/>
	<path fill="#FCD4B5" d="M33.951,22.387c-0.617,2.138-1.324,3.995-1.324,3.995c1.962,0.615,5.612-0.136,6.277-2.262
		c1.132-3.621-0.387-4.349-2.35-4.96C34.592,18.547,34.608,20.106,33.951,22.387z"/>
	<path fill="#855C52" d="M36.582,19.989c0.07-0.653,0.115-1.315,0.115-1.989c0-9.666-7.517-17.5-16.788-17.5S3.122,8.334,3.122,18
		c0,0.674,0.044,1.336,0.115,1.989c3.62-3.093,9.736-5.126,16.672-5.126C26.848,14.863,32.962,16.896,36.582,19.989z"/>
	<circle fill="#45413E" cx="27.053" cy="23.78" r="1.743"/>
	<circle fill="#FFFFFF" cx="26.679" cy="23.373" r="0.656"/>
	<circle fill="#45413E" cx="12.69" cy="23.78" r="1.742"/>
	<circle fill="#FFFFFF" cx="12.316" cy="23.373" r="0.656"/>
	<ellipse fill="#CEAF97" cx="19.909" cy="26.789" rx="1.76" ry="1.268"/>
	<path fill="#5A504A" d="M22.545,30.278c-0.439,0.282-1.454,0.481-2.636,0.481c-1.182,0-2.197-0.199-2.636-0.481
		c-0.149,0.098-0.232,0.202-0.232,0.313c0,0.437,1.284,0.792,2.868,0.792c1.583,0,2.868-0.355,2.868-0.792
		C22.777,30.48,22.692,30.376,22.545,30.278z"/>
	<path fill="#AF8A71" d="M36.398,21.181c-0.186,1.054-0.461,2.071-0.82,3.052c0.005,0.003,0.008,0.008,0.015,0.01
		c0.421,0.1,0.928-0.518,1.13-1.375C36.911,22.064,36.76,21.359,36.398,21.181z"/>
	<path fill="#AF8A71" d="M3.028,22.867c0.202,0.857,0.709,1.475,1.13,1.375c0.027-0.006,0.044-0.039,0.07-0.049
		c-0.357-0.98-0.629-2.002-0.813-3.056C3.001,21.25,2.827,22.014,3.028,22.867z"/>
	<polygon fill="#855C52" points="34.872,17.85 33.475,21.639 31.878,16.917 30.882,18.582 27.822,15.721 27.224,17.383 
		23.233,15.721 21.439,17.517 19.51,15.721 15.255,18.049 13.26,15.721 11.066,18.115 9.869,16.785 6.344,22.037 4.748,17.051 
		6.278,13.726 33.542,13.726 	"/>
</g>
<g>
</g>
<g>
</g>
<g>
</g>
<g>
</g>
<g>
</g>
<g>
</g>
</svg>
